/* XPM */
static char * OpenSongIcon48[] = {
"48 48 641 2",
"  	c None",
". 	c #494949",
"+ 	c #4A4A4A",
"@ 	c #413841",
"# 	c #413741",
"$ 	c #423741",
"% 	c #423841",
"& 	c #423842",
"* 	c #3F3A3E",
"= 	c #804E80",
"- 	c #814E81",
"; 	c #814F81",
"> 	c #824F82",
", 	c #834F83",
"' 	c #844F83",
") 	c #844F84",
"! 	c #845084",
"~ 	c #A361A4",
"{ 	c #A462A4",
"] 	c #A462A5",
"^ 	c #A563A5",
"/ 	c #A563A6",
"( 	c #A663A7",
"_ 	c #A763A7",
": 	c #A764A7",
"< 	c #A864A8",
"[ 	c #A865A8",
"} 	c #A965A9",
"| 	c #A663A6",
"1 	c #A461A4",
"2 	c #A561A5",
"3 	c #A562A5",
"4 	c #A662A6",
"5 	c #A762A7",
"6 	c #A864A9",
"7 	c #A964A9",
"8 	c #A965AA",
"9 	c #AA65AA",
"0 	c #A460A4",
"a 	c #A460A5",
"b 	c #A461A5",
"c 	c #A561A6",
"d 	c #A661A6",
"e 	c #A661A7",
"f 	c #A862A8",
"g 	c #A862A9",
"h 	c #A863A9",
"i 	c #A963A9",
"j 	c #A963AA",
"k 	c #AA63AA",
"l 	c #A25EA3",
"m 	c #A35EA3",
"n 	c #A35FA4",
"o 	c #A45FA4",
"p 	c #A55FA5",
"q 	c #A560A5",
"r 	c #A660A6",
"s 	c #A760A7",
"t 	c #A761A7",
"u 	c #A861A8",
"v 	c #A861A9",
"w 	c #A961A9",
"x 	c #A962A9",
"y 	c #AC66AC",
"z 	c #AE69AF",
"A 	c #B06DB1",
"B 	c #B26FB2",
"C 	c #B372B4",
"D 	c #B87AB8",
"E 	c #C48AC5",
"F 	c #CF9BD0",
"G 	c #D3A0D4",
"H 	c #AC69AC",
"I 	c #A660A7",
"J 	c #A25CA2",
"K 	c #A25DA2",
"L 	c #A35DA3",
"M 	c #A35EA4",
"N 	c #A45EA5",
"O 	c #A55EA5",
"P 	c #A55FA6",
"Q 	c #A65FA6",
"R 	c #A65FA7",
"S 	c #A760A8",
"T 	c #AA65AB",
"U 	c #B979BA",
"V 	c #C083C1",
"W 	c #C78DC8",
"X 	c #CE96CF",
"Y 	c #D5A0D5",
"Z 	c #DCA9DD",
"` 	c #E3B3E4",
" .	c #EABDEB",
"..	c #F1C6F2",
"+.	c #F9D0FA",
"@.	c #FED6FF",
"#.	c #AB6BAB",
"$.	c #A25DA3",
"%.	c #A35CA3",
"&.	c #A45DA4",
"*.	c #A55DA5",
"=.	c #A55DA6",
"-.	c #A65EA6",
";.	c #A65EA7",
">.	c #A75FA7",
",.	c #AC68AD",
"'.	c #E1B2E2",
").	c #F0C5F1",
"!.	c #F2C8F3",
"~.	c #F5CBF6",
"{.	c #F7CEF8",
"].	c #FAD1FB",
"^.	c #FCD5FD",
"/.	c #F0C6F1",
"(.	c #AA69AA",
"_.	c #A25CA3",
":.	c #A05AA0",
"<.	c #A05AA1",
"[.	c #A15AA1",
"}.	c #A25BA2",
"|.	c #A25BA3",
"1.	c #A35BA3",
"2.	c #A45BA4",
"3.	c #A45CA4",
"4.	c #A55CA5",
"5.	c #A65DA6",
"6.	c #AA68AB",
"7.	c #F0C7F1",
"8.	c #FED8FF",
"9.	c #A968A9",
"0.	c #A15AA2",
"a.	c #9F589F",
"b.	c #9F58A0",
"c.	c #A058A1",
"d.	c #A159A1",
"e.	c #A159A2",
"f.	c #A25AA3",
"g.	c #A35AA3",
"h.	c #A35AA4",
"i.	c #A45BA5",
"j.	c #A45AA5",
"k.	c #A967A9",
"l.	c #F0C8F1",
"m.	c #FED9FF",
"n.	c #A867A9",
"o.	c #A25AA2",
"p.	c #A058A0",
"q.	c #9E569E",
"r.	c #9E579F",
"s.	c #9F579F",
"t.	c #9F57A0",
"u.	c #A057A0",
"v.	c #A158A2",
"w.	c #A259A3",
"x.	c #A359A4",
"y.	c #A866A9",
"z.	c #A765A8",
"A.	c #9C539D",
"B.	c #9D549E",
"C.	c #9E549E",
"D.	c #9E549F",
"E.	c #9F559F",
"F.	c #9F55A0",
"G.	c #A056A1",
"H.	c #A156A2",
"I.	c #A157A2",
"J.	c #A257A3",
"K.	c #A764A8",
"L.	c #F0C9F0",
"M.	c #FEDBFE",
"N.	c #FDDAFD",
"O.	c #F9D6F9",
"P.	c #F6D1F6",
"Q.	c #F5D1F5",
"R.	c #FCDAFD",
"S.	c #A664A7",
"T.	c #A156A1",
"U.	c #A056A0",
"V.	c #9D549D",
"W.	c #9B529C",
"X.	c #9D539E",
"Y.	c #9E539F",
"Z.	c #9F549F",
"`.	c #9F54A0",
" +	c #A054A1",
".+	c #A055A1",
"++	c #A155A2",
"@+	c #F0CAF0",
"#+	c #FEDCFE",
"$+	c #FAD9FA",
"%+	c #F0CDF0",
"&+	c #E5BFE5",
"*+	c #DAB3DA",
"=+	c #D0A6D0",
"-+	c #C79AC7",
";+	c #BE8EBE",
">+	c #B683B6",
",+	c #AD77AE",
"'+	c #BB8ABB",
")+	c #F6D3F6",
"!+	c #A562A6",
"~+	c #9C529D",
"{+	c #9A509B",
"]+	c #9B509C",
"^+	c #9C519D",
"/+	c #9D519E",
"(+	c #9E529F",
"_+	c #9F53A0",
":+	c #A053A0",
"<+	c #A053A1",
"[+	c #A560A6",
"}+	c #F0CBF0",
"|+	c #F9D8F9",
"1+	c #CEA6CE",
"2+	c #B080B0",
"3+	c #A16CA1",
"4+	c #975D97",
"5+	c #975A97",
"6+	c #985899",
"7+	c #99579A",
"8+	c #9A549B",
"9+	c #9A529A",
"0+	c #99509A",
"a+	c #B173B1",
"b+	c #F4D2F4",
"c+	c #9F52A0",
"d+	c #984D99",
"e+	c #994D9A",
"f+	c #994E9A",
"g+	c #9B4E9C",
"h+	c #9B4F9C",
"i+	c #9C4F9D",
"j+	c #9D4F9E",
"k+	c #9D509E",
"l+	c #9E509F",
"m+	c #EFCCF0",
"n+	c #F4D3F5",
"o+	c #AD73AE",
"p+	c #9F50A0",
"q+	c #A051A1",
"r+	c #9F51A0",
"s+	c #9E519F",
"t+	c #B173B2",
"u+	c #F4D3F4",
"v+	c #EFCCEF",
"w+	c #A35FA3",
"x+	c #9A4E9B",
"y+	c #974B98",
"z+	c #974C98",
"A+	c #984C99",
"B+	c #9A4D9B",
"C+	c #9B4D9C",
"D+	c #9C4E9D",
"E+	c #9D4E9E",
"F+	c #EFCDEF",
"G+	c #F4D5F5",
"H+	c #B275B3",
"I+	c #9E4F9F",
"J+	c #9F4FA0",
"K+	c #9E4F9E",
"L+	c #B072B1",
"M+	c #F4D4F4",
"N+	c #A15DA2",
"O+	c #994C9A",
"P+	c #964997",
"Q+	c #964A97",
"R+	c #974A98",
"S+	c #984A98",
"T+	c #984B99",
"U+	c #994B9A",
"V+	c #994B9B",
"W+	c #9A4C9B",
"X+	c #9B4C9C",
"Y+	c #9C4C9D",
"Z+	c #EECFEF",
"`+	c #F4D7F5",
" @	c #9D4D9F",
".@	c #9E4D9F",
"+@	c #9D4D9E",
"@@	c #B071B1",
"#@	c #F3D6F4",
"$@	c #EECEEF",
"%@	c #A05BA1",
"&@	c #934795",
"*@	c #944795",
"=@	c #954796",
"-@	c #954797",
";@	c #964897",
">@	c #964898",
",@	c #974898",
"'@	c #98499A",
")@	c #994A9B",
"!@	c #9A4A9B",
"~@	c #F4D8F5",
"{@	c #9A4A9C",
"]@	c #9B4A9D",
"^@	c #9B4A9C",
"/@	c #AE6FAF",
"(@	c #F3D7F4",
"_@	c #9E59A0",
":@	c #984999",
"<@	c #954897",
"[@	c #924593",
"}@	c #934593",
"|@	c #934595",
"1@	c #944595",
"2@	c #944695",
"3@	c #954696",
"4@	c #964696",
"5@	c #964797",
"6@	c #974798",
"7@	c #984799",
"8@	c #984899",
"9@	c #EED0EE",
"0@	c #F4D9F4",
"a@	c #AF71B0",
"b@	c #98479A",
"c@	c #9A489B",
"d@	c #99489B",
"e@	c #99489A",
"f@	c #99479A",
"g@	c #AD6EAE",
"h@	c #F3D8F4",
"i@	c #9D589E",
"j@	c #974698",
"k@	c #964798",
"l@	c #964697",
"m@	c #934594",
"n@	c #914292",
"o@	c #924293",
"p@	c #934394",
"q@	c #934395",
"r@	c #954496",
"s@	c #964497",
"t@	c #974598",
"u@	c #9D569E",
"v@	c #EED1EE",
"w@	c #F4DAF4",
"x@	c #AD70AF",
"y@	c #984599",
"z@	c #99459A",
"A@	c #AC6DAD",
"B@	c #F3D9F3",
"C@	c #9C559D",
"D@	c #944496",
"E@	c #914293",
"F@	c #8E4090",
"G@	c #8F4091",
"H@	c #904191",
"I@	c #904192",
"J@	c #914192",
"K@	c #914193",
"L@	c #924194",
"M@	c #924294",
"N@	c #934294",
"O@	c #934295",
"P@	c #944396",
"Q@	c #9B549D",
"R@	c #EED2EE",
"S@	c #F3DBF4",
"T@	c #AC6EAD",
"U@	c #954397",
"V@	c #AA6CAB",
"W@	c #F3DAF3",
"X@	c #EDD2EE",
"Y@	c #9B539C",
"Z@	c #924193",
"`@	c #8F4191",
" #	c #8D3E8F",
".#	c #8E3E90",
"+#	c #8F3F90",
"@#	c #903F91",
"##	c #903F92",
"$#	c #914093",
"%#	c #924094",
"&#	c #934094",
"*#	c #9A529C",
"=#	c #EDD3EE",
"-#	c #F3DCF4",
";#	c #AB6DAC",
">#	c #944095",
",#	c #944196",
"'#	c #AC69AD",
")#	c #BF8DC0",
"!#	c #F5DEF5",
"~#	c #EDD3ED",
"{#	c #99529B",
"]#	c #923F94",
"^#	c #8F3F91",
"/#	c #8E3F90",
"(#	c #8C3B8D",
"_#	c #8C3B8E",
":#	c #8D3C8E",
"<#	c #8D3C8F",
"[#	c #8E3C8F",
"}#	c #8F3C90",
"|#	c #8F3D90",
"1#	c #8F3D91",
"2#	c #903D91",
"3#	c #903D92",
"4#	c #913D92",
"5#	c #913E92",
"6#	c #923E92",
"7#	c #99519A",
"8#	c #EDD4ED",
"9#	c #F3DDF3",
"0#	c #923E93",
"a#	c #933E94",
"b#	c #913D93",
"c#	c #B57BB6",
"d#	c #E7C9E8",
"e#	c #F3DCF3",
"f#	c #F5DFF5",
"g#	c #F6E0F6",
"h#	c #FCE9FC",
"i#	c #985099",
"j#	c #8E3C90",
"k#	c #8A398B",
"l#	c #8A398C",
"m#	c #8B3A8C",
"n#	c #8C3A8C",
"o#	c #8C3A8D",
"p#	c #8D3A8E",
"q#	c #8D3B8E",
"r#	c #8E3B8F",
"s#	c #984A99",
"t#	c #AF72B1",
"u#	c #B079B1",
"v#	c #F0DAF0",
"w#	c #F3DEF3",
"x#	c #A86BA9",
"y#	c #903C92",
"z#	c #913C92",
"A#	c #C696C6",
"B#	c #FDECFD",
"C#	c #EDD5ED",
"D#	c #964E98",
"E#	c #88378A",
"F#	c #89378A",
"G#	c #89388B",
"H#	c #8A388C",
"I#	c #8B388D",
"J#	c #8B398D",
"K#	c #8C398E",
"L#	c #8D3B8F",
"M#	c #B67FB8",
"N#	c #E0C2E1",
"O#	c #F9E8F9",
"P#	c #FCEDFD",
"Q#	c #F3DFF3",
"R#	c #A76AA9",
"S#	c #8E3990",
"T#	c #8E3A90",
"U#	c #8F3A91",
"V#	c #AD6FAE",
"W#	c #F4E1F5",
"X#	c #ECD5ED",
"Y#	c #934B95",
"Z#	c #8C388E",
"`#	c #89378B",
" $	c #873589",
".$	c #883689",
"+$	c #88368A",
"@$	c #89368B",
"#$	c #8A368C",
"$$	c #8A378C",
"%$	c #C193C3",
"&$	c #F6E6F6",
"*$	c #FCEEFC",
"=$	c #F2E1F2",
"-$	c #A669A7",
";$	c #8C378E",
">$	c #8D388F",
",$	c #8D3A8F",
"'$	c #C397C4",
")$	c #FBEEFB",
"!$	c #DFC5E0",
"~$	c #883989",
"{$	c #8B378D",
"]$	c #883589",
"^$	c #853286",
"/$	c #853387",
"($	c #863388",
"_$	c #873389",
":$	c #88338A",
"<$	c #9E5B9F",
"[$	c #F0DDF0",
"}$	c #FCF0FC",
"|$	c #F1E1F1",
"1$	c #A365A4",
"2$	c #8B358D",
"3$	c #BC8FBD",
"4$	c #FAEEFA",
"5$	c #F1E2F1",
"6$	c #9A629B",
"7$	c #88348A",
"8$	c #843086",
"9$	c #843186",
"0$	c #853187",
"a$	c #863188",
"b$	c #853287",
"c$	c #AF79B0",
"d$	c #F6E9F6",
"e$	c #FCF1FC",
"f$	c #E6D1E6",
"g$	c #8F4791",
"h$	c #89328B",
"i$	c #89338B",
"j$	c #8A338C",
"k$	c #945296",
"l$	c #DBC3DB",
"m$	c #F9EDF9",
"n$	c #D9C2DA",
"o$	c #9E689F",
"p$	c #812F83",
"q$	c #883289",
"r$	c #873289",
"s$	c #863288",
"t$	c #822F84",
"u$	c #833085",
"v$	c #853087",
"w$	c #A369A4",
"x$	c #F3E5F3",
"y$	c #F9EFF9",
"z$	c #9F6BA0",
"A$	c #88318A",
"B$	c #843E85",
"C$	c #9C6D9D",
"D$	c #B693B6",
"E$	c #B18CB2",
"F$	c #935F94",
"G$	c #833C84",
"H$	c #833084",
"I$	c #863187",
"J$	c #832F85",
"K$	c #802D82",
"L$	c #812D83",
"M$	c #822D84",
"N$	c #832E85",
"O$	c #803382",
"P$	c #C6A5C7",
"Q$	c #F0E4F1",
"R$	c #F8EEF8",
"S$	c #F3E7F3",
"T$	c #E1CEE2",
"U$	c #98649A",
"V$	c #7D2B80",
"W$	c #852E87",
"X$	c #862E88",
"Y$	c #7D2C7F",
"Z$	c #7E2C80",
"`$	c #842E87",
" %	c #842E86",
".%	c #842E85",
"+%	c #832D85",
"@%	c #7F2B82",
"#%	c #7F2C82",
"$%	c #802C82",
"%%	c #802C83",
"&%	c #812C83",
"*%	c #812C84",
"=%	c #822C84",
"-%	c #7B2E7D",
";%	c #976098",
">%	c #AA7FAB",
",%	c #AC82AD",
"'%	c #9D6A9F",
")%	c #833E85",
"!%	c #7E2B80",
"~%	c #842D86",
"{%	c #842D87",
"]%	c #832D86",
"^%	c #7F2A81",
"/%	c #7F2A82",
"(%	c #802A82",
"_%	c #802A83",
":%	c #812A83",
"<%	c #812B83",
"[%	c #812B82",
"}%	c #7E2A80",
"|%	c #7C2A7F",
"1%	c #7C297F",
"2%	c #812A84",
"3%	c #822B84",
"4%	c #832B85",
"5%	c #822B83",
"6%	c #7C287F",
"7%	c #7D287F",
"8%	c #7E2880",
"9%	c #7F2880",
"0%	c #7F2881",
"a%	c #7F2981",
"b%	c #802981",
"c%	c #802982",
"d%	c #802983",
"e%	c #812983",
"f%	c #7B277D",
"g%	c #7C277E",
"h%	c #7D277E",
"i%	c #7D277F",
"j%	c #7E277F",
"k%	c #7E2780",
"l%	c #7E2881",
"m%	c #802882",
"n%	c #7C277D",
"o%	c #593859",
"p%	c #5C355C",
"q%	c #5C355D",
"r%	c #5C365D",
"s%	c #5D365D",
"t%	c #5C365E",
"u%	c #5D365E",
"v%	c #5B355C",
"w%	c #543D55",
"x%	c #414141",
"y%	c #363534",
"z%	c #353433",
"A%	c #373636",
"B%	c #404040",
"C%	c #343332",
"D%	c #373635",
"E%	c #3E3D3C",
"F%	c #3A3938",
"G%	c #3B3A39",
"H%	c #434343",
"I%	c #414140",
"J%	c #424242",
"K%	c #444444",
"L%	c #464646",
"M%	c #3E3E3E",
"N%	c #454545",
"O%	c #1C1C1C",
"P%	c #313131",
"Q%	c #191919",
"R%	c #171717",
"S%	c #303030",
"T%	c #181818",
"U%	c #020202",
"V%	c #030303",
"W%	c #010101",
"X%	c #040404",
"                                                                                                ",
"                                                                                                ",
"    . . . . . . . . . . . . . . . . . . . . . . . . . . . . . . . . . . . . . . . . . . . +     ",
"    + + + + + + + + + + + + + + + + + + + + + + + + + + + + + + + + + + + + + + + + + + + +     ",
"    @ # # # # # # $ $ $ % % % % % & % % & & & & & & & & & % & & $ & & % $ % $ # # # # # # *     ",
"    = - - ; ; > , , , ' ' ) ) ' ! ! ! ! ! ! ! ! ! ! ! ! ! ! ! ! ) ! ) ) ' , , > > ; ; - =       ",
"    ~ { ] ^ ^ / ( _ : : : : < [ [ } } } } } } } } } } } } } } [ [ < : : : : | | / ^ ^ { {       ",
"    1 2 3 3 4 4 5 _ _ _ < 6 7 7 7 7 } 8 9 9 9 9 9 9 9 9 8 } 7 7 7 7 < < _ _ _ 5 4 4 3 3 2       ",
"    0 a a b c d e e 5 5 f g h h h i i j j k k k k k k j j i i h h h f f 5 e e e d c b a a       ",
"    l m n o p p q r r s t t t u u v w w w x w w k y z A B C D E F G H s I r r q p p n m m       ",
"    J K L M N O p P Q R s s s S S s T B U V W X Y Z `  ...+.@.@.@...#.Q Q Q P p O N m $.K       ",
"    J J J %.&.&.&.*.=.-.-.-.;.>.,.'.).!.~.{.].^.@.@.@.@.@.@.@.@.@./.(.O -.*.*.&.&.&._.J J       ",
"    :.<.[.}.}.|.1.2.3.3.4.*.=.5.6.7.8.8.8.8.8.8.8.8.8.8.8.8.8.8.8.7.9.3.3.3.2.|.}.}.0.[.:.      ",
"    a.b.c.c.d.e.f.g.g.h.2.i.i.j.k.l.m.m.m.m.m.m.m.m.m.m.m.m.m.m.m.l.n.h.g.g.f.o.e.d.c.p.a.      ",
"    q.r.s.t.u.c.v.v.v.w.x.x.x.x.y.l.m.m.m.m.m.m.m.m.m.m.m.m.m.m.m.l.z.w.w.v.v.v.c.t.t.r.q.      ",
"    A.B.C.D.E.F.F.G.G.H.H.I.I.J.K.L.M.M.M.M.M.M.M.M.M.M.N.O.P.Q.R.L.S.H.T.G.U.F.F.D.C.B.V.      ",
"    W.W.X.X.X.Y.Z.`.`. +.+.+++++5 @+#+#+#+#+$+%+&+*+=+-+;+>+,+'+)+@+!+ + +`.`.Z.Y.X.X.~+W.      ",
"    {+{+]+^+^+/+(+(+(+_+:+:+<+<+[+}+|+1+2+3+4+5+6+7+8+9+0+{+^+a+b+}+a _+c+(+(+(+/+^+^+]+{+      ",
"    d+e+f+f+g+h+h+i+j+k+k+k+l+l+n m+n+o+d+h+k+p+q+r+r+r+r+s+s+t+u+v+w+k+k+i+i+h+h+x+f+f+d+      ",
"    y+z+A+A+e+B+B+C+D+D+D+E+E+E+M F+G+H+j+I+J+J+J+J+I+I+I+K+j+L+M+F+N+D+D+g+B+B+B+O+A+A+z+      ",
"    P+Q+R+S+T+U+U+V+W+X+X+X+Y+Y+_.Z+`+t+Y+ @.@.@.@.@+@+@+@+@Y+@@#@$@%@X+X+W+U+U+T+T+S+Q+Q+      ",
"    &@*@=@-@;@>@>@,@'@'@'@)@)@!@<.Z+~@L+{@]@]@]@]@]@^@{@{@{@{@/@(@Z+_@'@'@:@,@>@>@<@-@=@*@      ",
"    [@}@|@1@2@3@4@5@6@6@6@7@8@7@b.9@0@a@b@c@c@c@c@c@d@e@e@e@f@g@h@9@i@j@6@k@l@4@3@2@1@m@}@      ",
"    n@o@o@p@p@q@r@r@r@s@s@s@t@t@u@v@w@x@t@y@y@z@z@y@y@y@y@y@t@A@B@v@C@s@s@r@r@D@p@p@p@o@E@      ",
"    F@G@H@I@J@K@L@M@N@O@O@O@P@P@Q@R@S@T@U@U@U@U@U@U@U@U@U@U@U@V@W@X@Y@O@O@M@M@Z@K@I@I@`@G@      ",
"     #.#.#+#@#####$#$#$#%#%#%#&#*#=#-#;#>#,#,#,#,#,#,#,#C+'#H+)#!#~#{#]#$#$#$###@#^#/#.# #      ",
"    (#_#:#<#[#}#|#1#2#2#3#4#5#6#7#8#9#V@0#a#a#a#a#a#b#c#d#e#f#g#h#8#i#2#2#2#|#|#j#[#:#:#(#      ",
"    k#l#m#n#o#p#p#q#r#r#|#s#|.t#u#v#w#x#y#z#z#z#z#&#A#B#B#B#B#B#B#C#D#r#r#r#q#p#p#o#n#m#k#      ",
"    E#F#G#H#H#H#I#J#K#L#M#N#O#P#P#P#Q#R#S#T#U#U#S#V#W#P#P#P#P#P#P#X#Y#Z#K#J#I#I#H#H#G#`#E#      ",
"     $ $.$+$@$@$#$$$`#%$&$*$*$*$*$*$=$-$;$>$>$>$,$'$)$*$*$*$*$*$*$!$~${$$$$$$$@$@$@$+$]$ $      ",
"    ^$/$($($_$_$_$:$<$[$}$}$}$}$}$}$|$1$2$2$2$2$#$3$4$}$}$}$}$}$5$6$_$7$7$7$:$_$_$($($($/$      ",
"    8$9$0$0$0$a$a$b$c$d$e$e$e$e$e$e$f$g$h$i$j$j$:$k$l$e$e$e$m$n$o$p$q$r$r$r$s$a$a$0$0$9$9$      ",
"    t$u$u$8$8$8$v$8$w$x$e$e$e$e$e$y$z$8$A$A$A$A$A$v$B$C$D$E$F$G$H$I$a$a$0$v$v$v$8$8$8$u$J$      ",
"    K$L$L$L$M$M$M$N$O$P$Q$R$y$S$T$U$V$W$W$X$X$X$X$X$W$L$Y$Z$M$`$W$ % %.%.%N$+%M$M$M$L$L$L$      ",
"    @%#%$%%%%%&%*%=%&%-%;%>%,%'%)%!%~%~%{%{%{%{%{%{%{%~%~%~%~%]%+%+%+%+%M$=%=%&%&%%%$%$%#%      ",
"    ^%^%^%/%(%(%_%:%<%[%}%|%1%^%2%3%4%4%4%4%4%4%4%4%4%4%4%4%4%4%3%3%3%5%5%<%:%(%(%(%/%^%^%      ",
"    6%7%7%8%8%9%9%0%0%a%b%c%c%c%d%d%e%e%e%e%e%e%e%e%e%e%e%e%d%d%c%c%c%b%a%0%0%9%8%8%7%7%7%      ",
"    f%g%g%h%h%i%i%j%j%k%8%l%l%0%0%0%0%0%m%m%m%m%m%m%m%m%0%0%0%0%0%0%0%8%k%j%j%i%i%h%g%g%n%      ",
"    o%p%p%p%p%p%q%q%q%q%r%s%r%r%t%u%u%u%u%u%u%u%u%u%u%u%u%u%u%u%r%r%r%r%q%q%q%p%p%p%p%p%v%w%    ",
"                                x%y%z%        z%A%      B%C%D%                                  ",
"                                  E%          F%G%          E%                                  ",
"                                H%B%          I%x%          J%J%                                ",
"                                H%            x%x%            H%                                ",
"                              H%              x%x%            H%x%                              ",
"                            B%K%              x%x%              L%                              ",
"                            L%                M%M%                N%                            ",
"                          O%P%                Q%R%                S%T%                          ",
"                          U%V%                W%                  X%U%                          "};
